<mxfile host="app.diagrams.net" modified="2023-04-11T18:47:41.217Z" agent="Mozilla/5.0 (Windows NT 10.0; Win64; x64) AppleWebKit/537.36 (KHTML, like Gecko) Chrome/111.0.0.0 Safari/537.36" version="21.1.6" etag="uQDNbZVFbekTTF9G4swu" type="github">
  <diagram name="PÃ¡gina-1" id="Q4JGNG_Z1TLiVNXhTvYV">
    <mxGraphModel>
      <root>
        <mxCell id="0" />
        <mxCell id="1" parent="0" />
      </root>
    </mxGraphModel>
  </diagram>
</mxfile>
